<svg width="128" height="128" viewBox="0 0 128 128" xmlns="http://www.w3.org/2000/svg">
  <defs>
    <linearGradient id="gradient" x1="0%" y1="0%" x2="100%" y2="100%">
      <stop offset="0%" style="stop-color:#667eea;stop-opacity:1" />
      <stop offset="100%" style="stop-color:#764ba2;stop-opacity:1" />
    </linearGradient>
  </defs>
  
  <!-- Background circle -->
  <circle cx="64" cy="64" r="60" fill="url(#gradient)" stroke="#fff" stroke-width="4"/>
  
  <!-- Heart icon -->
  <path d="M64 96.5L61.5 94.2C52.1 85.8 36 71.3 36 55.5C36 43.4 45.4 34 57.5 34C62.1 34 66.5 36.1 69.5 39.5C72.5 36.1 76.9 34 81.5 34C93.6 34 103 43.4 103 55.5C103 71.3 86.9 85.8 77.5 94.2L64 96.5Z" fill="#fff"/>
  
  <!-- Auto symbol (small gear) -->
  <g transform="translate(85, 25) scale(0.8)">
    <circle cx="12" cy="12" r="3" fill="#ffd700"/>
    <path d="M12 1L13.09 8.26L15 2L14.74 8.84L17 3L16.26 9.26L19 4L17.66 9.5L21 5L18.91 9.5L23 6L20 9.26L25 7L20.84 8.74L27 8L21.5 8L27 9L21.5 8L25 11L20 9.26L21 13L17.66 9.5L19 16L16.26 9.26L17 19L14.74 8.84L15 22L13.09 8.26L12 23L10.91 8.26L9 22L9.26 8.84L7 19L7.74 9.26L5 16L6.34 9.5L3 13L8 9.26L1 11L8.5 8L1 9L8.5 8L3 7L8 9.26L5 4L6.34 9.5L7 1L7.74 9.26L9 2L9.26 8.84L10.91 8.26Z" fill="#ffd700" transform="scale(0.5)"/>
  </g>
  
  <!-- Tweet symbol -->
  <g transform="translate(20, 30) scale(0.6)">
    <path d="M23.32 6.44c-.88.39-1.83.65-2.82.77 1.01-.61 1.79-1.57 2.16-2.72-.95.56-2 .97-3.12 1.19-.9-.96-2.18-1.56-3.59-1.56-2.72 0-4.92 2.2-4.92 4.92 0 .39.04.76.13 1.12-4.09-.21-7.71-2.16-10.14-5.14-.42.73-.67 1.57-.67 2.47 0 1.71.87 3.21 2.19 4.09-.81-.03-1.56-.25-2.23-.62v.06c0 2.39 1.7 4.38 3.95 4.83-.41.11-.85.17-1.29.17-.32 0-.62-.03-.93-.08.63 1.96 2.45 3.39 4.61 3.43-1.69 1.32-3.82 2.11-6.14 2.11-.4 0-.79-.02-1.17-.07 2.18 1.4 4.77 2.21 7.55 2.21 9.06 0 14.01-7.5 14.01-14.01 0-.21 0-.42-.01-.63.96-.69 1.8-1.56 2.46-2.55z" fill="#1da1f2"/>
  </g>
</svg> 